# Blender v2.80 (sub 75) OBJ File: ''
# www.blender.org
mtllib Cupboartd.mtl
o Cube
v 2.000000 5.992898 -2.568385
v 2.000000 -6.140722 -2.631738
v 2.000000 6.212645 2.662562
v 2.000000 -6.242726 2.675454
v -2.000000 7.000000 -3.000000
v -2.000000 -7.000000 -3.000000
v -2.000000 7.000000 3.000000
v -2.000000 -7.000000 3.000000
v 2.000000 1.007102 -2.568385
v -2.000000 0.000000 3.000000
v 2.000000 0.787355 2.662562
v -2.000000 0.000000 -3.000000
v -2.000000 -7.000000 0.000000
v 2.000000 6.212645 0.337438
v -2.000000 7.000000 0.000000
v 2.000000 -6.140722 -0.368262
v 2.000000 0.787355 0.337438
v -2.000000 0.000000 0.000000
v 2.000000 -2.806582 -2.702821
v 2.000000 -2.734668 2.672001
v -2.000000 -3.500000 -3.000000
v -2.000000 -3.500000 3.000000
v -2.000000 -3.500000 0.000000
v 2.000000 -2.734668 0.327999
v 2.000000 5.992898 -0.431615
v 2.000000 7.000000 3.000000
v 2.000000 -0.765332 2.672001
v 2.000000 1.007102 -0.431615
v 2.000000 7.000000 -3.000000
v 2.000000 -0.693418 -2.702821
v 2.000000 7.000000 0.000000
v 2.000000 -0.765332 0.327999
v 2.000000 -0.693418 -0.297179
v 2.000000 0.000000 3.000000
v 2.000000 -4.257274 2.675454
v 2.000000 -2.806582 -0.297179
v 2.000000 0.000000 -3.000000
v 2.000000 0.000000 0.000000
v 2.000000 -4.359278 -2.631738
v 2.000000 -4.359278 -0.368262
v 2.000000 -3.500000 -3.000000
v 2.000000 -7.000000 -3.000000
v 2.000000 -6.242726 0.324546
v 2.000000 -4.257274 0.324546
v 2.000000 -3.500000 3.000000
v 2.000000 -7.000000 3.000000
v 2.000000 -7.000000 0.000000
v 2.000000 -3.500000 0.000000
v 1.892073 6.212645 0.337438
v 1.892073 6.212645 2.662562
v 1.892073 0.787355 2.662562
v 1.892073 0.787355 0.337438
v 1.892073 5.992898 -2.568385
v 1.892073 1.007102 -2.568385
v 1.892073 5.992898 -0.431615
v 1.892073 1.007102 -0.431615
v 1.892073 -0.765332 0.327999
v 1.892073 -0.765332 2.672001
v 1.892073 -2.734668 2.672001
v 1.892073 -2.734668 0.327999
v 1.892073 -0.693418 -2.702821
v 1.892073 -0.693418 -0.297179
v 1.892073 -2.806582 -2.702821
v 1.892073 -2.806582 -0.297179
v 1.892073 -4.359278 -2.631738
v 1.892073 -6.140722 -2.631738
v 1.892073 -6.140722 -0.368262
v 1.892073 -4.359278 -0.368262
v 1.892073 -4.257274 2.675454
v 1.892073 -6.242726 2.675454
v 1.892073 -6.242726 0.324546
v 1.892073 -4.257274 0.324546
vt 0.375000 0.125000
vt 0.625000 0.125000
vt 0.625000 0.250000
vt 0.375000 0.250000
vt 0.500000 0.250000
vt 0.625000 0.250000
vt 0.625000 0.500000
vt 0.500000 0.500000
vt 0.500000 0.625000
vt 0.625000 0.625000
vt 0.625000 0.750000
vt 0.500000 0.750000
vt 0.375000 0.875000
vt 0.625000 0.875000
vt 0.625000 1.000000
vt 0.375000 1.000000
vt 0.236333 0.638667
vt 0.236333 0.736333
vt 0.236333 0.736333
vt 0.236333 0.638667
vt 0.750000 0.500000
vt 0.875000 0.500000
vt 0.875000 0.750000
vt 0.750000 0.750000
vt 0.687500 0.500000
vt 0.687500 0.750000
vt 0.360940 0.735940
vt 0.264060 0.735940
vt 0.264060 0.735940
vt 0.360940 0.735940
vt 0.437500 0.625000
vt 0.437500 0.750000
vt 0.437500 0.250000
vt 0.437500 0.500000
vt 0.267984 0.517984
vt 0.357016 0.517984
vt 0.357016 0.517984
vt 0.267984 0.517984
vt 0.360940 0.639060
vt 0.360940 0.639060
vt 0.375000 0.750000
vt 0.625000 0.750000
vt 0.375000 0.000000
vt 0.625000 0.000000
vt 0.173977 0.638523
vt 0.173977 0.736477
vt 0.173977 0.736477
vt 0.173977 0.638523
vt 0.375000 0.500000
vt 0.375000 0.625000
vt 0.375000 0.250000
vt 0.172156 0.515344
vt 0.172156 0.609656
vt 0.172156 0.609656
vt 0.172156 0.515344
vt 0.625000 0.500000
vt 0.375000 0.625000
vt 0.375000 0.750000
vt 0.250000 0.750000
vt 0.264060 0.639060
vt 0.250000 0.625000
vt 0.250000 0.500000
vt 0.375000 0.500000
vt 0.357016 0.607016
vt 0.267984 0.607016
vt 0.201167 0.736333
vt 0.187500 0.750000
vt 0.201167 0.638667
vt 0.187500 0.625000
vt 0.237618 0.612618
vt 0.237618 0.512383
vt 0.199882 0.512382
vt 0.187500 0.500000
vt 0.199882 0.612617
vt 0.140344 0.515344
vt 0.125000 0.500000
vt 0.140344 0.609656
vt 0.125000 0.625000
vt 0.138523 0.736477
vt 0.125000 0.750000
vt 0.138523 0.638523
vt 0.264060 0.639060
vt 0.201167 0.638667
vt 0.201167 0.736333
vt 0.199882 0.512382
vt 0.237618 0.512383
vt 0.237618 0.612618
vt 0.199882 0.612617
vt 0.357016 0.607016
vt 0.267984 0.607016
vt 0.140344 0.515344
vt 0.140344 0.609656
vt 0.138523 0.638523
vt 0.138523 0.736477
vn 0.0000 1.0000 0.0000
vn 0.0000 0.0000 1.0000
vn -1.0000 0.0000 0.0000
vn 0.0000 -1.0000 0.0000
vn 0.0000 0.0000 -1.0000
vn 1.0000 0.0000 0.0000
usemtl Material
s off
f 31/1/1 15/2/1 7/3/1 26/4/1
f 34/5/2 26/6/2 7/7/2 10/8/2
f 18/9/3 15/10/3 5/11/3 12/12/3
f 13/13/4 47/14/4 46/15/4 8/16/4
f 32/17/4 27/18/4 58/19/4 57/20/4
f 12/21/5 5/22/5 29/23/5 37/24/5
f 21/25/5 12/21/5 37/24/5 41/26/5
f 3/27/5 11/28/5 51/29/5 50/30/5
f 23/31/3 18/9/3 12/12/3 21/32/3
f 45/33/2 34/5/2 10/8/2 22/34/2
f 22/34/3 10/8/3 18/9/3 23/31/3
f 9/35/2 1/36/2 53/37/2 54/38/2
f 14/39/4 3/27/4 50/30/4 49/40/4
f 6/41/4 42/42/4 47/14/4 13/13/4
f 10/8/3 7/7/3 15/10/3 18/9/3
f 29/43/1 5/44/1 15/2/1 31/1/1
f 44/45/4 35/46/4 69/47/4 72/48/4
f 8/49/3 22/34/3 23/31/3 13/50/3
f 46/51/2 45/33/2 22/34/2 8/49/2
f 13/50/3 23/31/3 21/32/3 6/41/3
f 39/52/4 40/53/4 68/54/4 65/55/4
f 6/56/5 21/25/5 41/26/5 42/42/5
f 3/27/6 14/39/6 31/57/6 26/58/6
f 11/28/6 3/27/6 26/58/6 34/59/6
f 17/60/6 11/28/6 34/59/6 38/61/6
f 14/39/6 17/60/6 38/61/6 31/57/6
f 1/36/6 9/35/6 37/62/6 29/63/6
f 25/64/6 1/36/6 29/63/6 31/57/6
f 9/35/6 28/65/6 38/61/6 37/62/6
f 28/65/6 25/64/6 31/57/6 38/61/6
f 27/18/6 32/17/6 38/61/6 34/59/6
f 20/66/6 27/18/6 34/59/6 45/67/6
f 32/17/6 24/68/6 48/69/6 38/61/6
f 24/68/6 20/66/6 45/67/6 48/69/6
f 33/70/6 30/71/6 37/62/6 38/61/6
f 30/71/6 19/72/6 41/73/6 37/62/6
f 36/74/6 33/70/6 38/61/6 48/69/6
f 19/72/6 36/74/6 48/69/6 41/73/6
f 39/52/6 2/75/6 42/76/6 41/73/6
f 2/75/6 16/77/6 47/78/6 42/76/6
f 16/77/6 40/53/6 48/69/6 47/78/6
f 40/53/6 39/52/6 41/73/6 48/69/6
f 4/79/6 35/46/6 45/67/6 46/80/6
f 43/81/6 4/79/6 46/80/6 47/78/6
f 44/45/6 43/81/6 47/78/6 48/69/6
f 35/46/6 44/45/6 48/69/6 45/67/6
f 52/82/6 49/40/6 50/30/6 51/29/6
f 60/83/6 57/20/6 58/19/6 59/84/6
f 63/85/6 61/86/6 62/87/6 64/88/6
f 54/38/6 53/37/6 55/89/6 56/90/6
f 66/91/6 65/55/6 68/54/6 67/92/6
f 71/93/6 72/48/6 69/47/6 70/94/6
f 1/36/4 25/64/4 55/89/4 53/37/4
f 30/71/4 33/70/4 62/87/4 61/86/4
f 11/28/1 17/60/1 52/82/1 51/29/1
f 27/18/5 20/66/5 59/84/5 58/19/5
f 2/75/2 39/52/2 65/55/2 66/91/2
f 28/65/1 9/35/1 54/38/1 56/90/1
f 19/72/2 30/71/2 61/86/2 63/85/2
f 35/46/5 4/79/5 70/94/5 69/47/5
f 17/60/2 14/39/2 49/40/2 52/82/2
f 24/68/2 32/17/2 57/20/2 60/83/2
f 16/77/1 2/75/1 66/91/1 67/92/1
f 25/64/5 28/65/5 56/90/5 55/89/5
f 33/70/5 36/74/5 64/88/5 62/87/5
f 4/79/1 43/81/1 71/93/1 70/94/1
f 20/66/1 24/68/1 60/83/1 59/84/1
f 40/53/5 16/77/5 67/92/5 68/54/5
f 36/74/1 19/72/1 63/85/1 64/88/1
f 43/81/2 44/45/2 72/48/2 71/93/2
o Cube.001
v 2.135183 3.217206 -0.246496
v 2.135183 3.417206 -0.246496
v 2.135183 3.217206 -0.446496
v 2.135183 3.417206 -0.446496
v 2.335183 3.217206 -0.246496
v 2.335183 3.417206 -0.246496
v 2.335183 3.217206 -0.446496
v 2.335183 3.417206 -0.446496
vt 0.375000 0.000000
vt 0.625000 0.000000
vt 0.625000 0.250000
vt 0.375000 0.250000
vt 0.625000 0.500000
vt 0.375000 0.500000
vt 0.625000 0.750000
vt 0.375000 0.750000
vt 0.625000 1.000000
vt 0.375000 1.000000
vt 0.125000 0.500000
vt 0.125000 0.750000
vt 0.875000 0.500000
vt 0.875000 0.750000
vn -1.0000 0.0000 0.0000
vn 0.0000 0.0000 -1.0000
vn 1.0000 0.0000 0.0000
vn 0.0000 0.0000 1.0000
vn 0.0000 -1.0000 0.0000
vn 0.0000 1.0000 0.0000
usemtl None
s off
f 73/95/7 74/96/7 76/97/7 75/98/7
f 75/98/8 76/97/8 80/99/8 79/100/8
f 79/100/9 80/99/9 78/101/9 77/102/9
f 77/102/10 78/101/10 74/103/10 73/104/10
f 75/105/11 79/100/11 77/102/11 73/106/11
f 80/99/12 76/107/12 74/108/12 78/101/12
o Cube.002
v 2.135183 3.217206 0.286132
v 2.135183 3.417206 0.286132
v 2.135183 3.217206 0.086132
v 2.135183 3.417206 0.086132
v 2.335183 3.217206 0.286132
v 2.335183 3.417206 0.286132
v 2.335183 3.217206 0.086132
v 2.335183 3.417206 0.086132
vt 0.375000 0.000000
vt 0.625000 0.000000
vt 0.625000 0.250000
vt 0.375000 0.250000
vt 0.625000 0.500000
vt 0.375000 0.500000
vt 0.625000 0.750000
vt 0.375000 0.750000
vt 0.625000 1.000000
vt 0.375000 1.000000
vt 0.125000 0.500000
vt 0.125000 0.750000
vt 0.875000 0.500000
vt 0.875000 0.750000
vn -1.0000 0.0000 0.0000
vn 0.0000 0.0000 -1.0000
vn 1.0000 0.0000 0.0000
vn 0.0000 0.0000 1.0000
vn 0.0000 -1.0000 0.0000
vn 0.0000 1.0000 0.0000
usemtl None
s off
f 81/109/13 82/110/13 84/111/13 83/112/13
f 83/112/14 84/111/14 88/113/14 87/114/14
f 87/114/15 88/113/15 86/115/15 85/116/15
f 85/116/16 86/115/16 82/117/16 81/118/16
f 83/119/17 87/114/17 85/116/17 81/120/17
f 88/113/18 84/121/18 82/122/18 86/115/18
o Cube.003
v 2.135183 -1.840581 -0.246496
v 2.135183 -1.640581 -0.246496
v 2.135183 -1.840581 -0.446496
v 2.135183 -1.640581 -0.446496
v 2.335183 -1.840581 -0.246496
v 2.335183 -1.640581 -0.246496
v 2.335183 -1.840581 -0.446496
v 2.335183 -1.640581 -0.446496
vt 0.375000 0.000000
vt 0.625000 0.000000
vt 0.625000 0.250000
vt 0.375000 0.250000
vt 0.625000 0.500000
vt 0.375000 0.500000
vt 0.625000 0.750000
vt 0.375000 0.750000
vt 0.625000 1.000000
vt 0.375000 1.000000
vt 0.125000 0.500000
vt 0.125000 0.750000
vt 0.875000 0.500000
vt 0.875000 0.750000
vn -1.0000 0.0000 0.0000
vn 0.0000 0.0000 -1.0000
vn 1.0000 0.0000 0.0000
vn 0.0000 0.0000 1.0000
vn 0.0000 -1.0000 0.0000
vn 0.0000 1.0000 0.0000
usemtl None
s off
f 89/123/19 90/124/19 92/125/19 91/126/19
f 91/126/20 92/125/20 96/127/20 95/128/20
f 95/128/21 96/127/21 94/129/21 93/130/21
f 93/130/22 94/129/22 90/131/22 89/132/22
f 91/133/23 95/128/23 93/130/23 89/134/23
f 96/127/24 92/135/24 90/136/24 94/129/24
o Cube.004
v 2.135183 -1.840581 0.135673
v 2.135183 -1.640581 0.135673
v 2.135183 -1.840581 -0.064327
v 2.135183 -1.640581 -0.064327
v 2.335183 -1.840581 0.135673
v 2.335183 -1.640581 0.135673
v 2.335183 -1.840581 -0.064327
v 2.335183 -1.640581 -0.064327
vt 0.375000 0.000000
vt 0.625000 0.000000
vt 0.625000 0.250000
vt 0.375000 0.250000
vt 0.625000 0.500000
vt 0.375000 0.500000
vt 0.625000 0.750000
vt 0.375000 0.750000
vt 0.625000 1.000000
vt 0.375000 1.000000
vt 0.125000 0.500000
vt 0.125000 0.750000
vt 0.875000 0.500000
vt 0.875000 0.750000
vn -1.0000 0.0000 0.0000
vn 0.0000 0.0000 -1.0000
vn 1.0000 0.0000 0.0000
vn 0.0000 0.0000 1.0000
vn 0.0000 -1.0000 0.0000
vn 0.0000 1.0000 0.0000
usemtl None
s off
f 97/137/25 98/138/25 100/139/25 99/140/25
f 99/140/26 100/139/26 104/141/26 103/142/26
f 103/142/27 104/141/27 102/143/27 101/144/27
f 101/144/28 102/143/28 98/145/28 97/146/28
f 99/147/29 103/142/29 101/144/29 97/148/29
f 104/141/30 100/149/30 98/150/30 102/143/30
o Cube.005
v 2.135183 -5.419152 0.135673
v 2.135183 -5.219152 0.135673
v 2.135183 -5.419152 -0.064327
v 2.135183 -5.219152 -0.064327
v 2.335183 -5.419152 0.135673
v 2.335183 -5.219152 0.135673
v 2.335183 -5.419152 -0.064327
v 2.335183 -5.219152 -0.064327
vt 0.375000 0.000000
vt 0.625000 0.000000
vt 0.625000 0.250000
vt 0.375000 0.250000
vt 0.625000 0.500000
vt 0.375000 0.500000
vt 0.625000 0.750000
vt 0.375000 0.750000
vt 0.625000 1.000000
vt 0.375000 1.000000
vt 0.125000 0.500000
vt 0.125000 0.750000
vt 0.875000 0.500000
vt 0.875000 0.750000
vn -1.0000 0.0000 0.0000
vn 0.0000 0.0000 -1.0000
vn 1.0000 0.0000 0.0000
vn 0.0000 0.0000 1.0000
vn 0.0000 -1.0000 0.0000
vn 0.0000 1.0000 0.0000
usemtl None
s off
f 105/151/31 106/152/31 108/153/31 107/154/31
f 107/154/32 108/153/32 112/155/32 111/156/32
f 111/156/33 112/155/33 110/157/33 109/158/33
f 109/158/34 110/157/34 106/159/34 105/160/34
f 107/161/35 111/156/35 109/158/35 105/162/35
f 112/155/36 108/163/36 106/164/36 110/157/36
o Cube.006
v 2.135183 -5.419152 -0.238241
v 2.135183 -5.219152 -0.238241
v 2.135183 -5.419152 -0.438241
v 2.135183 -5.219152 -0.438241
v 2.335183 -5.419152 -0.238241
v 2.335183 -5.219152 -0.238241
v 2.335183 -5.419152 -0.438241
v 2.335183 -5.219152 -0.438241
vt 0.375000 0.000000
vt 0.625000 0.000000
vt 0.625000 0.250000
vt 0.375000 0.250000
vt 0.625000 0.500000
vt 0.375000 0.500000
vt 0.625000 0.750000
vt 0.375000 0.750000
vt 0.625000 1.000000
vt 0.375000 1.000000
vt 0.125000 0.500000
vt 0.125000 0.750000
vt 0.875000 0.500000
vt 0.875000 0.750000
vn -1.0000 0.0000 0.0000
vn 0.0000 0.0000 -1.0000
vn 1.0000 0.0000 0.0000
vn 0.0000 0.0000 1.0000
vn 0.0000 -1.0000 0.0000
vn 0.0000 1.0000 0.0000
usemtl None
s off
f 113/165/37 114/166/37 116/167/37 115/168/37
f 115/168/38 116/167/38 120/169/38 119/170/38
f 119/170/39 120/169/39 118/171/39 117/172/39
f 117/172/40 118/171/40 114/173/40 113/174/40
f 115/175/41 119/170/41 117/172/41 113/176/41
f 120/169/42 116/177/42 114/178/42 118/171/42
