ply
format ascii 1.0
comment Created by Blender 2.80 (sub 75) - www.blender.org, source file: ''
element vertex 192
property float x
property float y
property float z
property float nx
property float ny
property float nz
property float s
property float t
element face 124
property list uchar uint vertex_indices
end_header
-11.500000 1.000000 -3.000000 0.000000 0.995185 -0.098018 1.000000 0.500000
-10.500000 1.000000 -3.000000 0.000000 0.995185 -0.098018 1.000000 1.000000
-10.500000 0.942356 -3.585271 0.000000 0.995185 -0.098018 0.968750 1.000000
-11.500000 0.942356 -3.585271 0.000000 0.995185 -0.098018 0.968750 0.500000
-11.500000 0.942356 -3.585271 0.000000 0.956940 -0.290285 0.968750 0.500000
-10.500000 0.942356 -3.585271 0.000000 0.956940 -0.290285 0.968750 1.000000
-10.500000 0.771638 -4.148050 0.000000 0.956940 -0.290285 0.937500 1.000000
-11.500000 0.771638 -4.148050 0.000000 0.956940 -0.290285 0.937500 0.500000
-11.500000 0.771638 -4.148050 0.000000 0.881921 -0.471396 0.937500 0.500000
-10.500000 0.771638 -4.148050 0.000000 0.881921 -0.471396 0.937500 1.000000
-10.500000 0.494409 -4.666711 0.000000 0.881921 -0.471396 0.906250 1.000000
-11.500000 0.494409 -4.666711 0.000000 0.881921 -0.471396 0.906250 0.500000
-11.500000 0.494409 -4.666711 0.000000 0.773010 -0.634394 0.906250 0.500000
-10.500000 0.494409 -4.666711 0.000000 0.773010 -0.634394 0.906250 1.000000
-10.500000 0.121320 -5.121320 0.000000 0.773010 -0.634394 0.875000 1.000000
-11.500000 0.121320 -5.121320 0.000000 0.773010 -0.634394 0.875000 0.500000
-11.500000 0.121320 -5.121320 0.000000 0.634394 -0.773010 0.875000 0.500000
-10.500000 0.121320 -5.121320 0.000000 0.634394 -0.773010 0.875000 1.000000
-10.500000 -0.333289 -5.494409 0.000000 0.634394 -0.773010 0.843750 1.000000
-11.500000 -0.333289 -5.494409 0.000000 0.634394 -0.773010 0.843750 0.500000
-11.500000 -0.333289 -5.494409 0.000000 0.471396 -0.881922 0.843750 0.500000
-10.500000 -0.333289 -5.494409 0.000000 0.471396 -0.881922 0.843750 1.000000
-10.500000 -0.851950 -5.771638 0.000000 0.471396 -0.881922 0.812500 1.000000
-11.500000 -0.851950 -5.771638 0.000000 0.471396 -0.881922 0.812500 0.500000
-11.500000 -0.851950 -5.771638 0.000000 0.290285 -0.956940 0.812500 0.500000
-10.500000 -0.851950 -5.771638 0.000000 0.290285 -0.956940 0.812500 1.000000
-10.500000 -1.414729 -5.942356 0.000000 0.290285 -0.956940 0.781250 1.000000
-11.500000 -1.414729 -5.942356 0.000000 0.290285 -0.956940 0.781250 0.500000
-11.500000 -1.414729 -5.942356 0.000000 0.098018 -0.995185 0.781250 0.500000
-10.500000 -1.414729 -5.942356 0.000000 0.098018 -0.995185 0.781250 1.000000
-10.500000 -2.000000 -6.000000 0.000000 0.098018 -0.995185 0.750000 1.000000
-11.500000 -2.000000 -6.000000 0.000000 0.098018 -0.995185 0.750000 0.500000
-11.500000 -2.000000 -6.000000 -0.000000 -0.098017 -0.995185 0.750000 0.500000
-10.500000 -2.000000 -6.000000 -0.000000 -0.098017 -0.995185 0.750000 1.000000
-10.500000 -2.585271 -5.942356 -0.000000 -0.098017 -0.995185 0.718750 1.000000
-11.500000 -2.585271 -5.942356 0.000000 -0.098017 -0.995185 0.718750 0.500000
-11.500000 -2.585271 -5.942356 -0.000000 -0.290285 -0.956940 0.718750 0.500000
-10.500000 -2.585271 -5.942356 -0.000000 -0.290285 -0.956940 0.718750 1.000000
-10.500000 -3.148050 -5.771639 -0.000000 -0.290285 -0.956940 0.687500 1.000000
-11.500000 -3.148050 -5.771639 0.000000 -0.290285 -0.956940 0.687500 0.500000
-11.500000 -3.148050 -5.771639 -0.000000 -0.471397 -0.881921 0.687500 0.500000
-10.500000 -3.148050 -5.771639 -0.000000 -0.471397 -0.881921 0.687500 1.000000
-10.500000 -3.666711 -5.494409 -0.000000 -0.471397 -0.881921 0.656250 1.000000
-11.500000 -3.666711 -5.494409 0.000000 -0.471397 -0.881921 0.656250 0.500000
-11.500000 -3.666711 -5.494409 -0.000000 -0.634394 -0.773010 0.656250 0.500000
-10.500000 -3.666711 -5.494409 -0.000000 -0.634394 -0.773010 0.656250 1.000000
-10.500000 -4.121320 -5.121320 -0.000000 -0.634394 -0.773010 0.625000 1.000000
-11.500000 -4.121320 -5.121320 0.000000 -0.634394 -0.773010 0.625000 0.500000
-11.500000 -4.121320 -5.121320 -0.000000 -0.773010 -0.634394 0.625000 0.500000
-10.500000 -4.121320 -5.121320 -0.000000 -0.773010 -0.634394 0.625000 1.000000
-10.500000 -4.494409 -4.666711 -0.000000 -0.773010 -0.634394 0.593750 1.000000
-11.500000 -4.494409 -4.666711 0.000000 -0.773010 -0.634394 0.593750 0.500000
-11.500000 -4.494409 -4.666711 -0.000000 -0.881921 -0.471396 0.593750 0.500000
-10.500000 -4.494409 -4.666711 -0.000000 -0.881921 -0.471396 0.593750 1.000000
-10.500000 -4.771639 -4.148050 -0.000000 -0.881921 -0.471396 0.562500 1.000000
-11.500000 -4.771639 -4.148050 0.000000 -0.881921 -0.471396 0.562500 0.500000
-11.500000 -4.771639 -4.148050 -0.000000 -0.956940 -0.290285 0.562500 0.500000
-10.500000 -4.771639 -4.148050 -0.000000 -0.956940 -0.290285 0.562500 1.000000
-10.500000 -4.942356 -3.585270 -0.000000 -0.956940 -0.290285 0.531250 1.000000
-11.500000 -4.942356 -3.585270 0.000000 -0.956940 -0.290285 0.531250 0.500000
-11.500000 -4.942356 -3.585270 -0.000000 -0.995185 -0.098017 0.531250 0.500000
-10.500000 -4.942356 -3.585270 -0.000000 -0.995185 -0.098017 0.531250 1.000000
-10.500000 -5.000000 -2.999999 -0.000000 -0.995185 -0.098017 0.500000 1.000000
-11.500000 -5.000000 -2.999999 0.000000 -0.995185 -0.098017 0.500000 0.500000
-11.500000 -5.000000 -2.999999 0.000000 -0.995185 0.098017 0.500000 0.500000
-10.500000 -5.000000 -2.999999 0.000000 -0.995185 0.098017 0.500000 1.000000
-10.500000 -4.942356 -2.414728 0.000000 -0.995185 0.098017 0.468750 1.000000
-11.500000 -4.942356 -2.414728 0.000000 -0.995185 0.098017 0.468750 0.500000
-11.500000 -4.942356 -2.414728 0.000000 -0.956940 0.290285 0.468750 0.500000
-10.500000 -4.942356 -2.414728 0.000000 -0.956940 0.290285 0.468750 1.000000
-10.500000 -4.771638 -1.851948 0.000000 -0.956940 0.290285 0.437500 1.000000
-11.500000 -4.771638 -1.851948 0.000000 -0.956940 0.290285 0.437500 0.500000
-11.500000 -4.771638 -1.851948 0.000000 -0.881921 0.471397 0.437500 0.500000
-10.500000 -4.771638 -1.851948 0.000000 -0.881921 0.471397 0.437500 1.000000
-10.500000 -4.494408 -1.333288 0.000000 -0.881921 0.471397 0.406250 1.000000
-11.500000 -4.494408 -1.333288 0.000000 -0.881921 0.471397 0.406250 0.500000
-11.500000 -4.494408 -1.333288 0.000000 -0.773010 0.634394 0.406250 0.500000
-10.500000 -4.494408 -1.333288 0.000000 -0.773010 0.634394 0.406250 1.000000
-10.500000 -4.121319 -0.878678 0.000000 -0.773010 0.634394 0.375000 1.000000
-11.500000 -4.121319 -0.878678 0.000000 -0.773010 0.634394 0.375000 0.500000
-11.500000 -4.121319 -0.878678 0.000000 -0.634393 0.773011 0.375000 0.500000
-10.500000 -4.121319 -0.878678 0.000000 -0.634393 0.773011 0.375000 1.000000
-10.500000 -3.666709 -0.505590 0.000000 -0.634393 0.773011 0.343750 1.000000
-11.500000 -3.666709 -0.505590 0.000000 -0.634393 0.773011 0.343750 0.500000
-11.500000 -3.666709 -0.505590 0.000000 -0.471396 0.881922 0.343750 0.500000
-10.500000 -3.666709 -0.505590 0.000000 -0.471396 0.881922 0.343750 1.000000
-10.500000 -3.148048 -0.228360 0.000000 -0.471396 0.881922 0.312500 1.000000
-11.500000 -3.148048 -0.228360 0.000000 -0.471396 0.881922 0.312500 0.500000
-11.500000 -3.148048 -0.228360 0.000000 -0.290284 0.956941 0.312500 0.500000
-10.500000 -3.148048 -0.228360 0.000000 -0.290284 0.956941 0.312500 1.000000
-10.500000 -2.585268 -0.057644 0.000000 -0.290284 0.956941 0.281250 1.000000
-11.500000 -2.585268 -0.057644 0.000000 -0.290284 0.956941 0.281250 0.500000
-11.500000 -2.585268 -0.057644 0.000000 -0.098016 0.995185 0.281250 0.500000
-10.500000 -2.585268 -0.057644 0.000000 -0.098016 0.995185 0.281250 1.000000
-10.500000 -1.999997 0.000000 0.000000 -0.098016 0.995185 0.250000 1.000000
-11.500000 -1.999997 0.000000 0.000000 -0.098016 0.995185 0.250000 0.500000
-11.500000 -1.999997 0.000000 0.000000 0.098018 0.995185 0.250000 0.500000
-10.500000 -1.999997 0.000000 0.000000 0.098018 0.995185 0.250000 1.000000
-10.500000 -1.414726 -0.057645 0.000000 0.098018 0.995185 0.218750 1.000000
-11.500000 -1.414726 -0.057645 -0.000000 0.098018 0.995185 0.218750 0.500000
-11.500000 -1.414726 -0.057645 0.000000 0.290286 0.956940 0.218750 0.500000
-10.500000 -1.414726 -0.057645 0.000000 0.290286 0.956940 0.218750 1.000000
-10.500000 -0.851947 -0.228363 0.000000 0.290286 0.956940 0.187500 1.000000
-11.500000 -0.851947 -0.228363 -0.000000 0.290286 0.956940 0.187500 0.500000
-11.500000 -0.851947 -0.228363 0.000000 0.471398 0.881921 0.187500 0.500000
-10.500000 -0.851947 -0.228363 0.000000 0.471398 0.881921 0.187500 1.000000
-10.500000 -0.333286 -0.505593 0.000000 0.471398 0.881921 0.156250 1.000000
-11.500000 -0.333286 -0.505593 -0.000000 0.471398 0.881921 0.156250 0.500000
-11.500000 -0.333286 -0.505593 0.000000 0.634394 0.773010 0.156250 0.500000
-10.500000 -0.333286 -0.505593 0.000000 0.634394 0.773010 0.156250 1.000000
-10.500000 0.121323 -0.878682 0.000000 0.634394 0.773010 0.125000 1.000000
-11.500000 0.121323 -0.878682 -0.000000 0.634394 0.773010 0.125000 0.500000
-11.500000 0.121323 -0.878682 0.000000 0.773011 0.634392 0.125000 0.500000
-10.500000 0.121323 -0.878682 0.000000 0.773011 0.634392 0.125000 1.000000
-10.500000 0.494411 -1.333293 0.000000 0.773011 0.634392 0.093750 1.000000
-11.500000 0.494411 -1.333293 -0.000000 0.773011 0.634392 0.093750 0.500000
-11.500000 0.494411 -1.333293 0.000000 0.881922 0.471396 0.093750 0.500000
-10.500000 0.494411 -1.333293 0.000000 0.881922 0.471396 0.093750 1.000000
-10.500000 0.771640 -1.851954 0.000000 0.881922 0.471396 0.062500 1.000000
-11.500000 0.771640 -1.851954 -0.000000 0.881922 0.471396 0.062500 0.500000
-10.500000 0.771638 -4.148050 1.000000 0.000000 0.000000 0.341844 0.471731
-10.500000 0.942356 -3.585271 1.000000 0.000000 0.000000 0.296822 0.485388
-10.500000 1.000000 -3.000000 1.000000 0.000000 0.000000 0.250000 0.490000
-10.500000 0.942357 -2.414733 1.000000 0.000000 0.000000 0.203179 0.485389
-10.500000 0.771640 -1.851954 1.000000 0.000000 0.000000 0.158156 0.471731
-10.500000 0.494411 -1.333293 1.000000 0.000000 0.000000 0.116663 0.449553
-10.500000 0.121323 -0.878682 1.000000 0.000000 0.000000 0.080295 0.419706
-10.500000 -0.333286 -0.505593 1.000000 0.000000 0.000000 0.050447 0.383337
-10.500000 -0.851947 -0.228363 1.000000 0.000000 0.000000 0.028269 0.341844
-10.500000 -1.414726 -0.057645 1.000000 0.000000 0.000000 0.014612 0.296822
-10.500000 -1.999997 0.000000 1.000000 0.000000 0.000000 0.010000 0.250000
-10.500000 -2.585268 -0.057644 1.000000 0.000000 0.000000 0.014611 0.203179
-10.500000 -3.148048 -0.228360 1.000000 0.000000 0.000000 0.028269 0.158156
-10.500000 -3.666709 -0.505590 1.000000 0.000000 0.000000 0.050447 0.116663
-10.500000 -4.121319 -0.878678 1.000000 0.000000 0.000000 0.080294 0.080294
-10.500000 -4.494408 -1.333288 1.000000 0.000000 0.000000 0.116663 0.050447
-10.500000 -4.771638 -1.851948 1.000000 0.000000 0.000000 0.158156 0.028269
-10.500000 -4.942356 -2.414728 1.000000 0.000000 0.000000 0.203178 0.014612
-10.500000 -5.000000 -2.999999 1.000000 0.000000 0.000000 0.250000 0.010000
-10.500000 -4.942356 -3.585270 1.000000 0.000000 0.000000 0.296822 0.014612
-10.500000 -4.771639 -4.148050 1.000000 0.000000 0.000000 0.341844 0.028269
-10.500000 -4.494409 -4.666711 1.000000 0.000000 0.000000 0.383337 0.050447
-10.500000 -4.121320 -5.121320 1.000000 0.000000 0.000000 0.419706 0.080294
-10.500000 -3.666711 -5.494409 1.000000 0.000000 0.000000 0.449553 0.116663
-10.500000 -3.148050 -5.771639 1.000000 0.000000 0.000000 0.471731 0.158156
-10.500000 -2.585271 -5.942356 1.000000 0.000000 0.000000 0.485388 0.203178
-10.500000 -2.000000 -6.000000 1.000000 0.000000 0.000000 0.490000 0.250000
-10.500000 -1.414729 -5.942356 1.000000 0.000000 0.000000 0.485388 0.296822
-10.500000 -0.851950 -5.771638 1.000000 0.000000 0.000000 0.471731 0.341844
-10.500000 -0.333289 -5.494409 1.000000 0.000000 0.000000 0.449553 0.383337
-10.500000 0.121320 -5.121320 1.000000 0.000000 0.000000 0.419706 0.419706
-10.500000 0.494409 -4.666711 1.000000 0.000000 0.000000 0.383337 0.449553
-11.500000 0.771640 -1.851954 0.000000 0.956941 0.290283 0.062500 0.500000
-10.500000 0.771640 -1.851954 0.000000 0.956941 0.290283 0.062500 1.000000
-10.500000 0.942357 -2.414733 0.000000 0.956941 0.290283 0.031250 1.000000
-11.500000 0.942357 -2.414733 -0.000000 0.956941 0.290283 0.031250 0.500000
-11.500000 0.942357 -2.414733 0.000000 0.995185 0.098017 0.031250 0.500000
-10.500000 0.942357 -2.414733 0.000000 0.995185 0.098017 0.031250 1.000000
-10.500000 1.000000 -3.000000 0.000000 0.995185 0.098017 0.000000 1.000000
-11.500000 1.000000 -3.000000 -0.000000 0.995185 0.098017 0.000000 0.500000
-11.500000 0.942357 -2.414733 -1.000000 0.000000 0.000000 0.703179 0.485389
-11.500000 1.000000 -3.000000 -1.000000 0.000000 0.000000 0.750000 0.490000
-11.500000 0.942356 -3.585271 -1.000000 0.000000 0.000000 0.796822 0.485388
-11.500000 0.771638 -4.148050 -1.000000 0.000000 0.000000 0.841844 0.471731
-11.500000 0.494409 -4.666711 -1.000000 0.000000 0.000000 0.883337 0.449553
-11.500000 0.121320 -5.121320 -1.000000 0.000000 0.000000 0.919706 0.419706
-11.500000 -0.333289 -5.494409 -1.000000 0.000000 0.000000 0.949553 0.383337
-11.500000 -0.851950 -5.771638 -1.000000 0.000000 0.000000 0.971731 0.341844
-11.500000 -1.414729 -5.942356 -1.000000 0.000000 0.000000 0.985388 0.296822
-11.500000 -2.000000 -6.000000 -1.000000 0.000000 0.000000 0.990000 0.250000
-11.500000 -2.585271 -5.942356 -1.000000 0.000000 0.000000 0.985388 0.203178
-11.500000 -3.148050 -5.771639 -1.000000 0.000000 0.000000 0.971731 0.158156
-11.500000 -3.666711 -5.494409 -1.000000 0.000000 0.000000 0.949553 0.116663
-11.500000 -4.121320 -5.121320 -1.000000 0.000000 0.000000 0.919706 0.080294
-11.500000 -4.494409 -4.666711 -1.000000 0.000000 0.000000 0.883337 0.050447
-11.500000 -4.771639 -4.148050 -1.000000 0.000000 0.000000 0.841844 0.028269
-11.500000 -4.942356 -3.585270 -1.000000 0.000000 0.000000 0.796822 0.014612
-11.500000 -5.000000 -2.999999 -1.000000 0.000000 -0.000000 0.750000 0.010000
-11.500000 -4.942356 -2.414728 -1.000000 0.000000 -0.000000 0.703178 0.014612
-11.500000 -4.771638 -1.851948 -1.000000 0.000000 0.000000 0.658156 0.028269
-11.500000 -4.494408 -1.333288 -1.000000 0.000000 0.000000 0.616663 0.050447
-11.500000 -4.121319 -0.878678 -1.000000 0.000000 0.000000 0.580294 0.080294
-11.500000 -3.666709 -0.505590 -1.000000 0.000000 0.000000 0.550447 0.116663
-11.500000 -3.148048 -0.228360 -1.000000 0.000000 0.000000 0.528269 0.158156
-11.500000 -2.585268 -0.057644 -1.000000 0.000000 0.000000 0.514611 0.203179
-11.500000 -1.999997 0.000000 -1.000000 -0.000000 0.000000 0.510000 0.250000
-11.500000 -1.414726 -0.057645 -1.000000 -0.000000 0.000000 0.514612 0.296822
-11.500000 -0.851947 -0.228363 -1.000000 0.000000 0.000000 0.528269 0.341844
-11.500000 -0.333286 -0.505593 -1.000000 0.000000 0.000000 0.550447 0.383337
-11.500000 0.121323 -0.878682 -1.000000 0.000000 0.000000 0.580295 0.419706
-11.500000 0.494411 -1.333293 -1.000000 0.000000 0.000000 0.616663 0.449553
-11.500000 0.771640 -1.851954 -1.000000 0.000000 0.000000 0.658156 0.471731
3 0 1 2
3 0 2 3
3 4 5 6
3 4 6 7
3 8 9 10
3 8 10 11
3 12 13 14
3 12 14 15
3 16 17 18
3 16 18 19
3 20 21 22
3 20 22 23
3 24 25 26
3 24 26 27
3 28 29 30
3 28 30 31
3 32 33 34
3 32 34 35
3 36 37 38
3 36 38 39
3 40 41 42
3 40 42 43
3 44 45 46
3 44 46 47
3 48 49 50
3 48 50 51
3 52 53 54
3 52 54 55
3 56 57 58
3 56 58 59
3 60 61 62
3 60 62 63
3 64 65 66
3 64 66 67
3 68 69 70
3 68 70 71
3 72 73 74
3 72 74 75
3 76 77 78
3 76 78 79
3 80 81 82
3 80 82 83
3 84 85 86
3 84 86 87
3 88 89 90
3 88 90 91
3 92 93 94
3 92 94 95
3 96 97 98
3 96 98 99
3 100 101 102
3 100 102 103
3 104 105 106
3 104 106 107
3 108 109 110
3 108 110 111
3 112 113 114
3 112 114 115
3 116 117 118
3 116 118 119
3 120 121 122
3 122 123 124
3 124 125 126
3 126 127 128
3 128 129 130
3 130 131 132
3 132 133 134
3 134 135 136
3 136 137 138
3 138 139 140
3 140 141 142
3 142 143 144
3 144 145 146
3 146 147 148
3 148 149 150
3 150 151 120
3 120 122 124
3 124 126 128
3 128 130 132
3 132 134 136
3 136 138 140
3 140 142 144
3 144 146 148
3 148 150 120
3 120 124 128
3 128 132 136
3 136 140 144
3 144 148 120
3 120 128 136
3 136 144 120
3 152 153 154
3 152 154 155
3 156 157 158
3 156 158 159
3 160 161 162
3 162 163 164
3 164 165 166
3 166 167 168
3 168 169 170
3 170 171 172
3 172 173 174
3 174 175 176
3 176 177 178
3 178 179 180
3 180 181 182
3 182 183 184
3 184 185 186
3 186 187 188
3 188 189 190
3 190 191 160
3 160 162 164
3 164 166 168
3 168 170 172
3 172 174 176
3 176 178 180
3 180 182 184
3 184 186 188
3 188 190 160
3 160 164 168
3 168 172 176
3 176 180 184
3 184 188 160
3 160 168 176
3 176 184 160
